<mxfile host="app.diagrams.net" agent="Mozilla/5.0 (Windows NT 10.0; Win64; x64) AppleWebKit/537.36 (KHTML, like Gecko) Chrome/137.0.0.0 Safari/537.36" version="27.1.1">
  <diagram name="Страница — 1" id="p55odF4Jwjyj1lfkvI0V">
    <mxGraphModel grid="1" page="0" gridSize="10" guides="1" tooltips="1" connect="1" arrows="1" fold="1" pageScale="1" pageWidth="827" pageHeight="1169" background="#9276C7" math="0" shadow="0">
      <root>
        <mxCell id="0" />
        <mxCell id="1" parent="0" />
        <mxCell id="g8l_0LpcsB62kwAi1A_3-2" value="" style="rounded=0;whiteSpace=wrap;html=1;fillColor=none;strokeColor=light-dark(#000000,#000000);strokeWidth=3;" vertex="1" parent="1">
          <mxGeometry x="-280" y="-400" width="1920" height="1080" as="geometry" />
        </mxCell>
        <mxCell id="g8l_0LpcsB62kwAi1A_3-3" value="" style="rounded=0;whiteSpace=wrap;html=1;fillColor=none;strokeColor=light-dark(#000000,#000000);strokeWidth=3;" vertex="1" parent="1">
          <mxGeometry x="-280" y="-1480" width="1920" height="1080" as="geometry" />
        </mxCell>
        <mxCell id="g8l_0LpcsB62kwAi1A_3-4" value="" style="rounded=0;whiteSpace=wrap;html=1;fillColor=none;strokeColor=light-dark(#000000,#000000);strokeWidth=3;" vertex="1" parent="1">
          <mxGeometry x="1640" y="-400" width="1920" height="1080" as="geometry" />
        </mxCell>
        <mxCell id="g8l_0LpcsB62kwAi1A_3-5" value="" style="rounded=0;whiteSpace=wrap;html=1;fillColor=none;strokeColor=light-dark(#000000,#000000);strokeWidth=3;" vertex="1" parent="1">
          <mxGeometry x="1640" y="-1480" width="1920" height="1080" as="geometry" />
        </mxCell>
        <mxCell id="g8l_0LpcsB62kwAi1A_3-11" value="&lt;font style=&quot;color: light-dark(rgb(0, 0, 0), rgb(0, 0, 0));&quot;&gt;st.&lt;/font&gt;&lt;div&gt;&lt;font style=&quot;color: light-dark(rgb(0, 0, 0), rgb(0, 0, 0));&quot;&gt;door&lt;/font&gt;&lt;/div&gt;" style="rounded=0;whiteSpace=wrap;html=1;fillColor=none;strokeColor=light-dark(#2D7600,#263C1D);strokeWidth=2;" vertex="1" parent="1">
          <mxGeometry x="1040" y="290" width="30" height="110" as="geometry" />
        </mxCell>
        <mxCell id="g8l_0LpcsB62kwAi1A_3-12" value="jump length = 320&#xa;jump height = 158,5" style="text;whiteSpace=wrap;" vertex="1" parent="1">
          <mxGeometry x="-480" y="120" width="120" height="40" as="geometry" />
        </mxCell>
        <mxCell id="g8l_0LpcsB62kwAi1A_3-14" value="sizes:&#xa;player = 50*85&#xa;standart platform = 240*30&#xa;standart door = 30*110&#xa;button = 50*10&#xa;lever = 80*10&#xa;object for moving = 80*80&#xa;object for gathering = 40*40" style="text;whiteSpace=wrap;" vertex="1" parent="1">
          <mxGeometry x="-480" y="180" width="160" height="130" as="geometry" />
        </mxCell>
        <mxCell id="g8l_0LpcsB62kwAi1A_3-15" style="edgeStyle=none;curved=1;rounded=0;orthogonalLoop=1;jettySize=auto;html=1;exitX=1;exitY=0.5;exitDx=0;exitDy=0;fontSize=12;startSize=8;endSize=8;" edge="1" parent="1" source="g8l_0LpcsB62kwAi1A_3-14" target="g8l_0LpcsB62kwAi1A_3-14">
          <mxGeometry relative="1" as="geometry" />
        </mxCell>
        <mxCell id="g8l_0LpcsB62kwAi1A_3-17" value="button" style="shape=trapezoid;perimeter=trapezoidPerimeter;whiteSpace=wrap;html=1;fixedSize=1;size=10;fillColor=light-dark(#FFFFFF,#000066);" vertex="1" parent="1">
          <mxGeometry x="760" y="250" width="50" height="10" as="geometry" />
        </mxCell>
        <mxCell id="g8l_0LpcsB62kwAi1A_3-18" value="lever" style="shape=trapezoid;perimeter=trapezoidPerimeter;whiteSpace=wrap;html=1;fixedSize=1;size=10;fillColor=light-dark(#FFFFFF,#000066);" vertex="1" parent="1">
          <mxGeometry x="680" y="530" width="80" height="10" as="geometry" />
        </mxCell>
        <mxCell id="g8l_0LpcsB62kwAi1A_3-19" value="object for moving" style="whiteSpace=wrap;html=1;aspect=fixed;fillColor=none;strokeWidth=2;" vertex="1" parent="1">
          <mxGeometry x="745" y="170" width="80" height="80" as="geometry" />
        </mxCell>
        <mxCell id="g8l_0LpcsB62kwAi1A_3-28" value="" style="rounded=0;whiteSpace=wrap;html=1;fillColor=none;container=1;movable=1;resizable=1;rotatable=1;deletable=1;editable=1;locked=0;connectable=1;" vertex="1" parent="1">
          <mxGeometry x="1640" y="521.5" width="320" height="158.5" as="geometry" />
        </mxCell>
        <mxCell id="g8l_0LpcsB62kwAi1A_3-30" value="" style="endArrow=none;html=1;rounded=0;fontSize=12;startSize=8;endSize=8;curved=1;exitX=0;exitY=1;exitDx=0;exitDy=0;entryX=1;entryY=1;entryDx=0;entryDy=0;movable=1;resizable=1;rotatable=1;deletable=1;editable=1;locked=0;connectable=1;" edge="1" parent="1" source="g8l_0LpcsB62kwAi1A_3-28" target="g8l_0LpcsB62kwAi1A_3-28">
          <mxGeometry width="50" height="50" relative="1" as="geometry">
            <mxPoint x="1810" y="590" as="sourcePoint" />
            <mxPoint x="1860" y="540" as="targetPoint" />
            <Array as="points">
              <mxPoint x="1800" y="380" />
            </Array>
          </mxGeometry>
        </mxCell>
        <mxCell id="g8l_0LpcsB62kwAi1A_3-33" value="" style="rounded=0;whiteSpace=wrap;html=1;fillColor=none;container=1;movable=1;resizable=1;rotatable=1;deletable=1;editable=1;locked=0;connectable=1;" vertex="1" parent="1">
          <mxGeometry x="-280" y="521.5" width="320" height="158.5" as="geometry" />
        </mxCell>
        <mxCell id="g8l_0LpcsB62kwAi1A_3-34" value="" style="endArrow=none;html=1;rounded=0;fontSize=12;startSize=8;endSize=8;curved=1;exitX=0;exitY=1;exitDx=0;exitDy=0;entryX=1;entryY=1;entryDx=0;entryDy=0;" edge="1" parent="g8l_0LpcsB62kwAi1A_3-33" target="g8l_0LpcsB62kwAi1A_3-33">
          <mxGeometry width="50" height="50" relative="1" as="geometry">
            <mxPoint y="158.5" as="sourcePoint" />
            <mxPoint x="256" y="158.5" as="targetPoint" />
            <Array as="points">
              <mxPoint x="160" y="-151" />
            </Array>
          </mxGeometry>
        </mxCell>
        <mxCell id="g8l_0LpcsB62kwAi1A_3-35" value="standart platform" style="rounded=0;whiteSpace=wrap;html=1;fillColor=none;fontColor=#ffffff;strokeColor=light-dark(#2D7600,#263C1D);strokeWidth=2;" vertex="1" parent="1">
          <mxGeometry x="-200" y="830" width="240" height="30" as="geometry" />
        </mxCell>
        <mxCell id="g8l_0LpcsB62kwAi1A_3-37" value="platform" style="rounded=0;whiteSpace=wrap;html=1;fillColor=none;fontColor=#ffffff;strokeColor=light-dark(#2D7600,#263C1D);strokeWidth=2;" vertex="1" parent="1">
          <mxGeometry x="280" y="540" width="620" height="30" as="geometry" />
        </mxCell>
        <mxCell id="g8l_0LpcsB62kwAi1A_3-38" value="distances:&#xa;length between platforms = 300&#xa;height between platforms = 385.5&#xa;max length for jump = 160&#xa;max height for jump = 110" style="text;whiteSpace=wrap;" vertex="1" parent="1">
          <mxGeometry x="-480" y="330" width="200" height="130" as="geometry" />
        </mxCell>
        <mxCell id="g8l_0LpcsB62kwAi1A_3-6" value="player" style="rounded=0;whiteSpace=wrap;html=1;fillColor=none;strokeWidth=3;" vertex="1" parent="1">
          <mxGeometry x="-200" y="715" width="50" height="85" as="geometry" />
        </mxCell>
        <mxCell id="g8l_0LpcsB62kwAi1A_3-40" value="standart platform" style="rounded=0;whiteSpace=wrap;html=1;fillColor=none;fontColor=#ffffff;strokeColor=light-dark(#2D7600,#263C1D);strokeWidth=2;" vertex="1" parent="1">
          <mxGeometry x="1250" y="10" width="240" height="30" as="geometry" />
        </mxCell>
        <mxCell id="g8l_0LpcsB62kwAi1A_3-41" value="standart platform" style="rounded=0;whiteSpace=wrap;html=1;fillColor=none;fontColor=#ffffff;strokeColor=light-dark(#2D7600,#263C1D);strokeWidth=2;" vertex="1" parent="1">
          <mxGeometry x="-40" y="120" width="240" height="30" as="geometry" />
        </mxCell>
        <mxCell id="g8l_0LpcsB62kwAi1A_3-42" value="platform" style="rounded=0;whiteSpace=wrap;html=1;fillColor=none;fontColor=#ffffff;strokeColor=light-dark(#2D7600,#263C1D);strokeWidth=2;" vertex="1" parent="1">
          <mxGeometry x="-10" y="-20" width="560" height="30" as="geometry" />
        </mxCell>
        <mxCell id="g8l_0LpcsB62kwAi1A_3-43" value="platform" style="rounded=0;whiteSpace=wrap;html=1;fillColor=none;fontColor=#ffffff;strokeColor=light-dark(#2D7600,#263C1D);strokeWidth=2;" vertex="1" parent="1">
          <mxGeometry x="-280" y="120" width="240" height="30" as="geometry" />
        </mxCell>
        <mxCell id="g8l_0LpcsB62kwAi1A_3-44" value="standart platform" style="rounded=0;whiteSpace=wrap;html=1;fillColor=none;fontColor=#ffffff;strokeColor=light-dark(#2D7600,#263C1D);strokeWidth=2;" vertex="1" parent="1">
          <mxGeometry x="490" y="-680" width="240" height="30" as="geometry" />
        </mxCell>
        <mxCell id="g8l_0LpcsB62kwAi1A_3-49" style="edgeStyle=none;curved=1;rounded=0;orthogonalLoop=1;jettySize=auto;html=1;exitX=1;exitY=0.5;exitDx=0;exitDy=0;fontSize=12;startSize=8;endSize=8;" edge="1" parent="1" source="g8l_0LpcsB62kwAi1A_3-33" target="g8l_0LpcsB62kwAi1A_3-33">
          <mxGeometry relative="1" as="geometry" />
        </mxCell>
        <mxCell id="g8l_0LpcsB62kwAi1A_3-54" value="" style="rounded=0;whiteSpace=wrap;html=1;fillColor=none;container=1;movable=1;resizable=1;rotatable=1;deletable=1;editable=1;locked=0;connectable=1;" vertex="1" parent="1">
          <mxGeometry x="-60" y="-558.5" width="370" height="158.5" as="geometry" />
        </mxCell>
        <mxCell id="g8l_0LpcsB62kwAi1A_3-55" value="" style="endArrow=none;html=1;rounded=0;fontSize=12;startSize=8;endSize=8;curved=1;exitX=0;exitY=1;exitDx=0;exitDy=0;entryX=1;entryY=1;entryDx=0;entryDy=0;" edge="1" parent="g8l_0LpcsB62kwAi1A_3-54" target="g8l_0LpcsB62kwAi1A_3-54">
          <mxGeometry width="50" height="50" relative="1" as="geometry">
            <mxPoint y="158.5" as="sourcePoint" />
            <mxPoint x="256" y="158.5" as="targetPoint" />
            <Array as="points">
              <mxPoint x="160" y="-151" />
            </Array>
          </mxGeometry>
        </mxCell>
        <mxCell id="g8l_0LpcsB62kwAi1A_3-58" value="" style="rounded=0;whiteSpace=wrap;html=1;fillColor=none;strokeColor=light-dark(#000000,#3333FF);" vertex="1" parent="g8l_0LpcsB62kwAi1A_3-54">
          <mxGeometry y="48.5" width="180" height="110" as="geometry" />
        </mxCell>
        <mxCell id="g8l_0LpcsB62kwAi1A_3-7" value="standart platform" style="rounded=0;whiteSpace=wrap;html=1;fillColor=none;fontColor=#ffffff;strokeColor=light-dark(#2D7600,#263C1D);strokeWidth=2;" vertex="1" parent="g8l_0LpcsB62kwAi1A_3-54">
          <mxGeometry x="180" y="18.5" width="190" height="30" as="geometry" />
        </mxCell>
        <mxCell id="g8l_0LpcsB62kwAi1A_3-57" value="" style="rounded=0;whiteSpace=wrap;html=1;fillColor=none;strokeColor=light-dark(#000000,#3333FF);" vertex="1" parent="1">
          <mxGeometry x="310" y="-650" width="180" height="110" as="geometry" />
        </mxCell>
        <mxCell id="g8l_0LpcsB62kwAi1A_3-59" value="" style="rounded=0;whiteSpace=wrap;html=1;fillColor=none;strokeColor=light-dark(#000000,#3333FF);" vertex="1" parent="1">
          <mxGeometry x="730" y="-790" width="180" height="110" as="geometry" />
        </mxCell>
        <mxCell id="g8l_0LpcsB62kwAi1A_3-60" value="" style="rounded=0;whiteSpace=wrap;html=1;fillColor=none;strokeColor=light-dark(#000000,#3333FF);" vertex="1" parent="1">
          <mxGeometry x="1570" y="-1070" width="180" height="110" as="geometry" />
        </mxCell>
        <mxCell id="g8l_0LpcsB62kwAi1A_3-61" value="" style="rounded=0;whiteSpace=wrap;html=1;fillColor=none;strokeColor=light-dark(#000000,#3333FF);" vertex="1" parent="1">
          <mxGeometry x="1150" y="-930" width="180" height="110" as="geometry" />
        </mxCell>
        <mxCell id="g8l_0LpcsB62kwAi1A_3-63" value="standart platform" style="rounded=0;whiteSpace=wrap;html=1;fillColor=none;fontColor=#ffffff;strokeColor=light-dark(#2D7600,#263C1D);strokeWidth=2;" vertex="1" parent="1">
          <mxGeometry x="910" y="-820" width="240" height="30" as="geometry" />
        </mxCell>
        <mxCell id="g8l_0LpcsB62kwAi1A_3-64" value="standart platform" style="rounded=0;whiteSpace=wrap;html=1;fillColor=none;fontColor=#ffffff;strokeColor=light-dark(#2D7600,#263C1D);strokeWidth=2;" vertex="1" parent="1">
          <mxGeometry x="1330" y="-960" width="240" height="30" as="geometry" />
        </mxCell>
        <mxCell id="g8l_0LpcsB62kwAi1A_3-65" value="standart platform" style="rounded=0;whiteSpace=wrap;html=1;fillColor=none;fontColor=#ffffff;strokeColor=light-dark(#2D7600,#263C1D);strokeWidth=2;" vertex="1" parent="1">
          <mxGeometry x="1750" y="-1100" width="240" height="30" as="geometry" />
        </mxCell>
        <mxCell id="g8l_0LpcsB62kwAi1A_3-67" value="standart platform" style="rounded=0;whiteSpace=wrap;html=1;fillColor=none;fontColor=#ffffff;strokeColor=light-dark(#2D7600,#263C1D);strokeWidth=2;" vertex="1" parent="1">
          <mxGeometry x="2170" y="-1240" width="240" height="30" as="geometry" />
        </mxCell>
        <mxCell id="g8l_0LpcsB62kwAi1A_3-68" value="" style="rounded=0;whiteSpace=wrap;html=1;fillColor=none;strokeColor=light-dark(#000000,#3333FF);" vertex="1" parent="1">
          <mxGeometry x="1990" y="-1210" width="180" height="110" as="geometry" />
        </mxCell>
        <mxCell id="g8l_0LpcsB62kwAi1A_3-69" value="standart platform" style="rounded=0;whiteSpace=wrap;html=1;fillColor=none;fontColor=#ffffff;strokeColor=light-dark(#2D7600,#263C1D);strokeWidth=2;" vertex="1" parent="1">
          <mxGeometry x="2590" y="-1380" width="240" height="30" as="geometry" />
        </mxCell>
        <mxCell id="g8l_0LpcsB62kwAi1A_3-70" value="" style="rounded=0;whiteSpace=wrap;html=1;fillColor=none;strokeColor=light-dark(#000000,#3333FF);" vertex="1" parent="1">
          <mxGeometry x="2410" y="-1350" width="180" height="110" as="geometry" />
        </mxCell>
        <mxCell id="g8l_0LpcsB62kwAi1A_3-71" value="player" style="rounded=0;whiteSpace=wrap;html=1;fillColor=none;strokeWidth=3;" vertex="1" parent="1">
          <mxGeometry x="2590" y="-1465" width="50" height="85" as="geometry" />
        </mxCell>
        <mxCell id="g8l_0LpcsB62kwAi1A_3-74" value="" style="endArrow=none;html=1;rounded=0;fontSize=12;startSize=8;endSize=8;curved=1;exitX=0;exitY=1;exitDx=0;exitDy=0;entryX=1;entryY=1;entryDx=0;entryDy=0;" edge="1" parent="1">
          <mxGeometry width="50" height="50" relative="1" as="geometry">
            <mxPoint x="550" y="-400.5" as="sourcePoint" />
            <mxPoint x="870" y="-400" as="targetPoint" />
            <Array as="points">
              <mxPoint x="710" y="-710" />
            </Array>
          </mxGeometry>
        </mxCell>
        <mxCell id="g8l_0LpcsB62kwAi1A_3-77" value="standart platform" style="rounded=0;whiteSpace=wrap;html=1;fillColor=none;fontColor=#ffffff;strokeColor=light-dark(#2D7600,#263C1D);strokeWidth=2;" vertex="1" parent="1">
          <mxGeometry x="710" y="-530" width="240" height="30" as="geometry" />
        </mxCell>
        <mxCell id="g8l_0LpcsB62kwAi1A_3-79" value="" style="endArrow=none;html=1;rounded=0;fontSize=12;startSize=8;endSize=8;curved=1;exitX=0;exitY=1;exitDx=0;exitDy=0;entryX=1;entryY=1;entryDx=0;entryDy=0;" edge="1" parent="1">
          <mxGeometry width="50" height="50" relative="1" as="geometry">
            <mxPoint x="550" y="-530.5" as="sourcePoint" />
            <mxPoint x="870" y="-530" as="targetPoint" />
            <Array as="points">
              <mxPoint x="710" y="-840" />
            </Array>
          </mxGeometry>
        </mxCell>
        <mxCell id="g8l_0LpcsB62kwAi1A_3-82" value="object for moving" style="whiteSpace=wrap;html=1;aspect=fixed;fillColor=none;strokeWidth=2;" vertex="1" parent="1">
          <mxGeometry x="1310" y="-480" width="80" height="80" as="geometry" />
        </mxCell>
        <mxCell id="g8l_0LpcsB62kwAi1A_3-85" value="standart platform" style="rounded=0;whiteSpace=wrap;html=1;fillColor=none;fontColor=#ffffff;strokeColor=light-dark(#2D7600,#263C1D);strokeWidth=2;" vertex="1" parent="1">
          <mxGeometry x="1530" y="-620" width="240" height="30" as="geometry" />
        </mxCell>
        <mxCell id="g8l_0LpcsB62kwAi1A_3-86" value="" style="endArrow=none;html=1;rounded=0;fontSize=12;startSize=8;endSize=8;curved=1;exitX=0;exitY=1;exitDx=0;exitDy=0;entryX=1;entryY=1;entryDx=0;entryDy=0;" edge="1" parent="1">
          <mxGeometry width="50" height="50" relative="1" as="geometry">
            <mxPoint x="1040" y="-400.5" as="sourcePoint" />
            <mxPoint x="1360" y="-400" as="targetPoint" />
            <Array as="points">
              <mxPoint x="1200" y="-710" />
            </Array>
          </mxGeometry>
        </mxCell>
        <mxCell id="g8l_0LpcsB62kwAi1A_3-87" value="" style="endArrow=none;html=1;rounded=0;fontSize=12;startSize=8;endSize=8;curved=1;exitX=0;exitY=1;exitDx=0;exitDy=0;entryX=1;entryY=1;entryDx=0;entryDy=0;" edge="1" parent="1">
          <mxGeometry width="50" height="50" relative="1" as="geometry">
            <mxPoint x="1350" y="-480.5" as="sourcePoint" />
            <mxPoint x="1670" y="-480" as="targetPoint" />
            <Array as="points">
              <mxPoint x="1510" y="-790" />
            </Array>
          </mxGeometry>
        </mxCell>
        <mxCell id="g8l_0LpcsB62kwAi1A_3-91" value="max length&lt;div&gt;max height&lt;/div&gt;&lt;div&gt;for jump&lt;/div&gt;" style="rounded=0;whiteSpace=wrap;html=1;fillColor=none;strokeColor=light-dark(#000000,#3333FF);" vertex="1" parent="1">
          <mxGeometry x="1350" y="-590" width="180" height="110" as="geometry" />
        </mxCell>
        <mxCell id="g8l_0LpcsB62kwAi1A_3-92" value="" style="rounded=0;whiteSpace=wrap;html=1;fillColor=none;strokeColor=light-dark(#000000,#3333FF);" vertex="1" parent="1">
          <mxGeometry x="100" y="570" width="180" height="110" as="geometry" />
        </mxCell>
        <mxCell id="g8l_0LpcsB62kwAi1A_3-93" value="platform" style="rounded=0;whiteSpace=wrap;html=1;fillColor=none;fontColor=#ffffff;strokeColor=light-dark(#2D7600,#263C1D);strokeWidth=2;" vertex="1" parent="1">
          <mxGeometry x="650" y="260" width="420" height="30" as="geometry" />
        </mxCell>
        <mxCell id="g8l_0LpcsB62kwAi1A_3-94" value="" style="rounded=0;whiteSpace=wrap;html=1;fillColor=none;strokeColor=light-dark(#000000,#3333FF);" vertex="1" parent="1">
          <mxGeometry x="360" y="430" width="180" height="110" as="geometry" />
        </mxCell>
        <mxCell id="g8l_0LpcsB62kwAi1A_3-95" value="platform" style="rounded=0;whiteSpace=wrap;html=1;fillColor=none;fontColor=#ffffff;strokeColor=light-dark(#2D7600,#263C1D);strokeWidth=2;" vertex="1" parent="1">
          <mxGeometry x="1060" y="400" width="580" height="30" as="geometry" />
        </mxCell>
        <mxCell id="g8l_0LpcsB62kwAi1A_3-101" value="&lt;font style=&quot;color: light-dark(rgb(0, 0, 0), rgb(0, 0, 0));&quot;&gt;st.&lt;/font&gt;&lt;div&gt;&lt;font style=&quot;color: light-dark(rgb(0, 0, 0), rgb(0, 0, 0));&quot;&gt;door&lt;/font&gt;&lt;/div&gt;" style="rounded=0;whiteSpace=wrap;html=1;fillColor=none;strokeColor=light-dark(#2D7600,#990000);strokeWidth=2;" vertex="1" parent="1">
          <mxGeometry x="1040" y="150" width="30" height="110" as="geometry" />
        </mxCell>
        <mxCell id="g8l_0LpcsB62kwAi1A_3-104" value="" style="rounded=0;whiteSpace=wrap;html=1;fillColor=none;strokeColor=light-dark(#000000,#3333FF);" vertex="1" parent="1">
          <mxGeometry x="1070" y="290" width="180" height="110" as="geometry" />
        </mxCell>
        <mxCell id="g8l_0LpcsB62kwAi1A_3-113" value="" style="endArrow=none;html=1;rounded=0;fontSize=12;startSize=8;endSize=8;curved=1;exitX=0;exitY=1;exitDx=0;exitDy=0;entryX=1;entryY=1;entryDx=0;entryDy=0;movable=1;resizable=1;rotatable=1;deletable=1;editable=1;locked=0;connectable=1;" edge="1" parent="1">
          <mxGeometry width="50" height="50" relative="1" as="geometry">
            <mxPoint x="870" y="400" as="sourcePoint" />
            <mxPoint x="1190" y="400" as="targetPoint" />
            <Array as="points">
              <mxPoint x="1030" y="100" />
            </Array>
          </mxGeometry>
        </mxCell>
        <mxCell id="g8l_0LpcsB62kwAi1A_3-114" value="lever" style="shape=trapezoid;perimeter=trapezoidPerimeter;whiteSpace=wrap;html=1;fixedSize=1;size=10;fillColor=light-dark(#FFFFFF,#000066);" vertex="1" parent="1">
          <mxGeometry x="1440" y="390" width="80" height="10" as="geometry" />
        </mxCell>
        <mxCell id="g8l_0LpcsB62kwAi1A_3-119" value="" style="rounded=0;whiteSpace=wrap;html=1;fillColor=none;strokeColor=light-dark(#000000,#3333FF);" vertex="1" parent="1">
          <mxGeometry x="490" y="150" width="180" height="110" as="geometry" />
        </mxCell>
        <mxCell id="g8l_0LpcsB62kwAi1A_3-122" value="standart platform" style="rounded=0;whiteSpace=wrap;html=1;fillColor=none;fontColor=#ffffff;strokeColor=light-dark(#2D7600,#990000);strokeWidth=2;" vertex="1" parent="1">
          <mxGeometry x="250" y="120" width="240" height="30" as="geometry" />
        </mxCell>
        <mxCell id="g8l_0LpcsB62kwAi1A_3-123" value="button" style="shape=trapezoid;perimeter=trapezoidPerimeter;whiteSpace=wrap;html=1;fixedSize=1;size=10;fillColor=light-dark(#FFFFFF,#000066);" vertex="1" parent="1">
          <mxGeometry x="-260" y="110" width="50" height="10" as="geometry" />
        </mxCell>
        <mxCell id="g8l_0LpcsB62kwAi1A_3-124" value="" style="rounded=0;whiteSpace=wrap;html=1;fillColor=none;strokeColor=light-dark(#000000,#3333FF);" vertex="1" parent="1">
          <mxGeometry x="-160" y="10" width="180" height="110" as="geometry" />
        </mxCell>
        <mxCell id="g8l_0LpcsB62kwAi1A_3-125" value="player" style="rounded=0;whiteSpace=wrap;html=1;fillColor=none;strokeWidth=3;" vertex="1" parent="1">
          <mxGeometry x="-260" y="22.5" width="50" height="85" as="geometry" />
        </mxCell>
        <mxCell id="g8l_0LpcsB62kwAi1A_3-126" value="" style="rounded=0;whiteSpace=wrap;html=1;fillColor=none;strokeColor=light-dark(#000000,#3333FF);" vertex="1" parent="1">
          <mxGeometry x="-190" y="-130" width="180" height="110" as="geometry" />
        </mxCell>
        <mxCell id="g8l_0LpcsB62kwAi1A_3-127" value="" style="rounded=0;whiteSpace=wrap;html=1;fillColor=none;strokeColor=light-dark(#000000,#3333FF);" vertex="1" parent="1">
          <mxGeometry x="550" y="-130" width="180" height="110" as="geometry" />
        </mxCell>
        <mxCell id="g8l_0LpcsB62kwAi1A_3-128" value="platform" style="rounded=0;whiteSpace=wrap;html=1;fillColor=none;fontColor=#ffffff;strokeColor=light-dark(#2D7600,#263C1D);strokeWidth=2;" vertex="1" parent="1">
          <mxGeometry x="730" y="-160" width="440" height="30" as="geometry" />
        </mxCell>
        <mxCell id="g8l_0LpcsB62kwAi1A_3-129" value="platform" style="rounded=0;whiteSpace=wrap;html=1;fillColor=none;fontColor=#ffffff;strokeColor=light-dark(#2D7600,#263C1D);strokeWidth=2;" vertex="1" parent="1">
          <mxGeometry x="-330" y="-160" width="140" height="30" as="geometry" />
        </mxCell>
        <mxCell id="g8l_0LpcsB62kwAi1A_3-130" value="&lt;font style=&quot;font-size: 5px;&quot;&gt;object for gathering&lt;/font&gt;" style="whiteSpace=wrap;html=1;aspect=fixed;fillColor=none;strokeWidth=2;" vertex="1" parent="1">
          <mxGeometry x="550" y="640" width="40" height="40" as="geometry" />
        </mxCell>
        <mxCell id="g8l_0LpcsB62kwAi1A_3-132" value="&lt;font style=&quot;font-size: 5px;&quot;&gt;object for gathering&lt;/font&gt;" style="whiteSpace=wrap;html=1;aspect=fixed;fillColor=none;strokeWidth=2;" vertex="1" parent="1">
          <mxGeometry x="1570" y="360" width="40" height="40" as="geometry" />
        </mxCell>
        <mxCell id="g8l_0LpcsB62kwAi1A_3-133" value="&lt;font style=&quot;font-size: 5px;&quot;&gt;object for gathering&lt;/font&gt;" style="whiteSpace=wrap;html=1;aspect=fixed;fillColor=none;strokeWidth=2;" vertex="1" parent="1">
          <mxGeometry x="1320" y="-30" width="40" height="40" as="geometry" />
        </mxCell>
        <mxCell id="g8l_0LpcsB62kwAi1A_3-135" value="" style="rounded=0;whiteSpace=wrap;html=1;fillColor=none;strokeColor=light-dark(#000000,#3333FF);" vertex="1" parent="1">
          <mxGeometry x="1070" y="40" width="180" height="110" as="geometry" />
        </mxCell>
        <mxCell id="g8l_0LpcsB62kwAi1A_3-136" value="platform" style="rounded=0;whiteSpace=wrap;html=1;fillColor=none;fontColor=#ffffff;strokeColor=light-dark(#2D7600,#263C1D);strokeWidth=2;" vertex="1" parent="1">
          <mxGeometry x="-200" y="880" width="560" height="30" as="geometry" />
        </mxCell>
        <mxCell id="g8l_0LpcsB62kwAi1A_3-137" value="&lt;font style=&quot;font-size: 5px;&quot;&gt;object for gathering&lt;/font&gt;" style="whiteSpace=wrap;html=1;aspect=fixed;fillColor=none;strokeWidth=2;" vertex="1" parent="1">
          <mxGeometry x="240" y="800" width="40" height="40" as="geometry" />
        </mxCell>
        <mxCell id="g8l_0LpcsB62kwAi1A_3-138" value="object for moving" style="whiteSpace=wrap;html=1;aspect=fixed;fillColor=none;strokeWidth=2;" vertex="1" parent="1">
          <mxGeometry x="120" y="760" width="80" height="80" as="geometry" />
        </mxCell>
        <mxCell id="g8l_0LpcsB62kwAi1A_3-139" value="lever" style="shape=trapezoid;perimeter=trapezoidPerimeter;whiteSpace=wrap;html=1;fixedSize=1;size=10;fillColor=light-dark(#FFFFFF,#000066);" vertex="1" parent="1">
          <mxGeometry x="400" y="900" width="80" height="10" as="geometry" />
        </mxCell>
        <mxCell id="g8l_0LpcsB62kwAi1A_3-140" value="button" style="shape=trapezoid;perimeter=trapezoidPerimeter;whiteSpace=wrap;html=1;fixedSize=1;size=10;fillColor=light-dark(#FFFFFF,#000066);" vertex="1" parent="1">
          <mxGeometry x="400" y="870" width="50" height="10" as="geometry" />
        </mxCell>
        <mxCell id="g8l_0LpcsB62kwAi1A_3-143" value="" style="rounded=0;whiteSpace=wrap;html=1;fillColor=none;container=1;movable=1;resizable=1;rotatable=1;deletable=1;editable=1;locked=0;connectable=1;" vertex="1" parent="1">
          <mxGeometry x="2000" y="521.5" width="320" height="158.5" as="geometry" />
        </mxCell>
        <mxCell id="g8l_0LpcsB62kwAi1A_3-144" value="" style="endArrow=none;html=1;rounded=0;fontSize=12;startSize=8;endSize=8;curved=1;exitX=0;exitY=1;exitDx=0;exitDy=0;entryX=1;entryY=1;entryDx=0;entryDy=0;movable=1;resizable=1;rotatable=1;deletable=1;editable=1;locked=0;connectable=1;" edge="1" parent="g8l_0LpcsB62kwAi1A_3-143">
          <mxGeometry width="50" height="50" relative="1" as="geometry">
            <mxPoint y="158.5" as="sourcePoint" />
            <mxPoint x="320" y="158.5" as="targetPoint" />
            <Array as="points">
              <mxPoint x="160" y="-141.5" />
            </Array>
          </mxGeometry>
        </mxCell>
        <mxCell id="g8l_0LpcsB62kwAi1A_3-142" value="" style="rounded=0;whiteSpace=wrap;html=1;fillColor=none;strokeColor=light-dark(#000000,#3333FF);" vertex="1" parent="g8l_0LpcsB62kwAi1A_3-143">
          <mxGeometry y="48.5" width="180" height="110" as="geometry" />
        </mxCell>
        <mxCell id="2luynH6urDR9mo339Oxd-1" value="&lt;font style=&quot;color: light-dark(rgb(0, 0, 0), rgb(0, 0, 0));&quot;&gt;st.&lt;/font&gt;&lt;div&gt;&lt;font style=&quot;color: light-dark(rgb(0, 0, 0), rgb(0, 0, 0));&quot;&gt;door&lt;/font&gt;&lt;/div&gt;" style="rounded=0;whiteSpace=wrap;html=1;fillColor=none;strokeColor=light-dark(#2D7600,#263C1D);strokeWidth=2;" vertex="1" parent="1">
          <mxGeometry x="-280" y="810" width="30" height="110" as="geometry" />
        </mxCell>
      </root>
    </mxGraphModel>
  </diagram>
</mxfile>
